<svg width="1289" height="460" viewBox="0 0 1289 460" fill="none" xmlns="http://www.w3.org/2000/svg">
<path d="M142.053 459.342C103.909 458.026 72.3418 447.496 48.0087 427.754C43.4051 423.805 32.225 412.618 28.2791 408.011C18.4143 395.508 11.8378 383.004 7.23418 369.843C-6.57653 328.383 0.657652 273.763 27.6214 213.219C50.6393 161.888 86.8102 111.216 149.287 40.1431C158.494 30.2718 186.116 0 186.116 0C186.116 0 184.8 2.63233 182.828 5.92275C166.386 33.5622 152.576 65.1502 144.684 93.4478C132.188 138.197 134.161 176.366 149.287 206.638C159.81 227.039 177.566 244.807 197.296 254.678C232.152 271.788 283.448 273.104 346.583 258.627C351.187 257.31 564.924 200.715 821.409 132.275C1078.55 63.8341 1289 7.897 1289 7.897C1289 7.897 691.851 263.891 382.096 396.166C332.772 417.225 319.619 422.489 296.601 430.386C238.07 451.445 184.801 461.316 142.053 459.342Z" fill="white" fill-opacity="0.2"/>
</svg>
